<svg width="181" height="52" viewBox="0 0 181 52" fill="none" xmlns="http://www.w3.org/2000/svg">
<path d="M179.754 46.0034C179.754 48.7745 177.462 51.0192 174.628 51.0192H6.88634C4.05341 51.0192 1.75391 48.7745 1.75391 46.0034V6.00382C1.75391 3.23398 4.05341 0.981445 6.88634 0.981445H174.627C177.462 0.981445 179.753 3.23398 179.753 6.00382L179.754 46.0034Z" fill="black"/>
<path d="M174.087 1.04163C177.174 1.04163 179.686 3.4905 179.686 6.5V45.5C179.686 48.5095 177.174 50.9584 174.087 50.9584H7.42057C4.33391 50.9584 1.82224 48.5095 1.82224 45.5V6.5C1.82224 3.4905 4.33391 1.04163 7.42057 1.04163H174.087ZM174.087 2.74817e-06H7.42057C3.75557 2.74817e-06 0.753906 2.92663 0.753906 6.5V45.5C0.753906 49.0734 3.75557 52 7.42057 52H174.087C177.752 52 180.754 49.0734 180.754 45.5V6.5C180.754 2.92663 177.752 2.74817e-06 174.087 2.74817e-06Z" fill="#A6A6A6"/>
<path d="M40.9234 25.7191C40.8847 21.5292 44.4421 19.4908 44.6047 19.3959C42.5901 16.532 39.4674 16.1407 38.3701 16.1095C35.7474 15.8404 33.2034 17.6396 31.8674 17.6396C30.5047 17.6396 28.4474 16.1355 26.2301 16.1797C23.3767 16.2226 20.7074 17.8333 19.2434 20.3345C16.2221 25.4344 18.4754 32.9289 21.3701 37.0512C22.8181 39.0701 24.5101 41.3243 26.7247 41.245C28.8914 41.1579 29.7007 39.8982 32.3154 39.8982C34.9061 39.8982 35.6661 41.245 37.9247 41.1943C40.2501 41.1579 41.7141 39.1663 43.1114 37.1292C44.7847 34.8152 45.4567 32.5363 45.4834 32.4193C45.4287 32.4011 40.9674 30.741 40.9234 25.7191Z" fill="white"/>
<path d="M36.6567 13.3977C37.8221 11.9768 38.6194 10.0437 38.3981 8.08203C36.7114 8.15483 34.6021 9.21953 33.3874 10.6092C32.3127 11.8338 31.3527 13.841 31.6007 15.7286C33.4954 15.8664 35.4407 14.7965 36.6567 13.3977Z" fill="white"/>
<path d="M72.2808 40.9557H69.2528L67.5941 35.874H61.8288L60.2488 40.9557H57.3008L63.0128 23.6553H66.5408L72.2808 40.9557ZM67.0941 33.742L65.5941 29.2245C65.4354 28.763 65.1381 27.6762 64.6994 25.9654H64.6461C64.4714 26.7012 64.1901 27.788 63.8034 29.2245L62.3301 33.742H67.0941V33.742Z" fill="white"/>
<path d="M86.9698 34.5647C86.9698 36.6863 86.3818 38.3633 85.2058 39.5944C84.1524 40.6903 82.8444 41.2376 81.2831 41.2376C79.5978 41.2376 78.3871 40.6474 77.6498 39.467H77.5964V46.0385H74.7538V32.5874C74.7538 31.2536 74.7178 29.8847 74.6484 28.4807H77.1484L77.3071 30.458H77.3604C78.3084 28.9682 79.7471 28.2246 81.6778 28.2246C83.1871 28.2246 84.4471 28.8057 85.4551 29.9692C86.4658 31.134 86.9698 32.6654 86.9698 34.5647ZM84.0738 34.6661C84.0738 33.4519 83.7938 32.4509 83.2311 31.6631C82.6164 30.8415 81.7911 30.4307 80.7564 30.4307C80.0551 30.4307 79.4178 30.6595 78.8484 31.1106C78.2778 31.5656 77.9044 32.1597 77.7298 32.8955C77.6418 33.2387 77.5978 33.5195 77.5978 33.7405V35.8205C77.5978 36.7279 77.8831 37.4936 78.4538 38.1189C79.0244 38.7442 79.7658 39.0562 80.6778 39.0562C81.7484 39.0562 82.5818 38.6532 83.1778 37.8498C83.7751 37.0451 84.0738 35.9843 84.0738 34.6661Z" fill="white"/>
<path d="M101.687 34.5647C101.687 36.6863 101.099 38.3633 99.9219 39.5944C98.8699 40.6903 97.5619 41.2376 96.0005 41.2376C94.3152 41.2376 93.1045 40.6474 92.3685 39.467H92.3152V46.0385H89.4725V32.5874C89.4725 31.2536 89.4365 29.8847 89.3672 28.4807H91.8672L92.0259 30.458H92.0792C93.0259 28.9682 94.4645 28.2246 96.3965 28.2246C97.9045 28.2246 99.1645 28.8057 100.175 29.9692C101.182 31.134 101.687 32.6654 101.687 34.5647ZM98.7912 34.6661C98.7912 33.4519 98.5099 32.4509 97.9472 31.6631C97.3325 30.8415 96.5099 30.4307 95.4739 30.4307C94.7712 30.4307 94.1352 30.6595 93.5645 31.1106C92.9939 31.5656 92.6219 32.1597 92.4472 32.8955C92.3605 33.2387 92.3152 33.5195 92.3152 33.7405V35.8205C92.3152 36.7279 92.6005 37.4936 93.1685 38.1189C93.7392 38.7429 94.4805 39.0562 95.3952 39.0562C96.4659 39.0562 97.2992 38.6532 97.8952 37.8498C98.4925 37.0451 98.7912 35.9843 98.7912 34.6661Z" fill="white"/>
<path d="M118.141 36.1037C118.141 37.5753 117.617 38.7726 116.565 39.6969C115.409 40.707 113.799 41.2114 111.731 41.2114C109.822 41.2114 108.291 40.8526 107.133 40.1337L107.791 37.8236C109.039 38.5594 110.409 38.9286 111.901 38.9286C112.971 38.9286 113.805 38.692 114.403 38.2214C114.999 37.7508 115.297 37.119 115.297 36.3312C115.297 35.6292 115.051 35.0377 114.559 34.558C114.07 34.0783 113.253 33.6324 112.111 33.2203C109.005 32.0906 107.453 30.4357 107.453 28.2595C107.453 26.8373 107.997 25.6712 109.086 24.7638C110.171 23.8551 111.619 23.4014 113.43 23.4014C115.045 23.4014 116.386 23.6757 117.457 24.223L116.746 26.4824C115.746 25.952 114.615 25.6868 113.35 25.6868C112.35 25.6868 111.569 25.9273 111.009 26.4057C110.535 26.8334 110.298 27.3547 110.298 27.9722C110.298 28.656 110.569 29.2215 111.113 29.6661C111.586 30.0769 112.446 30.5215 113.694 31.0012C115.221 31.6005 116.342 32.3012 117.063 33.1046C117.782 33.9054 118.141 34.9077 118.141 36.1037Z" fill="white"/>
<path d="M127.538 30.5604H124.405V36.6171C124.405 38.1576 124.957 38.9272 126.063 38.9272C126.571 38.9272 126.993 38.8843 127.326 38.7985L127.405 40.9032C126.845 41.1073 126.107 41.21 125.194 41.21C124.071 41.21 123.194 40.8759 122.561 40.209C121.93 39.5408 121.613 38.4202 121.613 36.8459V30.5578H119.746V28.4778H121.613V26.1937L124.405 25.3721V28.4778H127.538V30.5604Z" fill="white"/>
<path d="M141.677 34.6151C141.677 36.5326 141.114 38.1069 139.991 39.338C138.814 40.6055 137.251 41.2373 135.303 41.2373C133.426 41.2373 131.931 40.6302 130.817 39.416C129.702 38.2018 129.145 36.6691 129.145 34.8218C129.145 32.8887 129.718 31.3053 130.869 30.0742C132.017 28.8418 133.566 28.2256 135.514 28.2256C137.391 28.2256 138.902 28.8327 140.042 30.0482C141.133 31.2273 141.677 32.7496 141.677 34.6151ZM138.727 34.7048C138.727 33.5543 138.475 32.5676 137.965 31.7447C137.369 30.7489 136.517 30.2523 135.413 30.2523C134.27 30.2523 133.402 30.7502 132.806 31.7447C132.295 32.5689 132.043 33.5712 132.043 34.7568C132.043 35.9073 132.295 36.894 132.806 37.7156C133.421 38.7114 134.279 39.208 135.387 39.208C136.473 39.208 137.325 38.701 137.939 37.6896C138.463 36.8511 138.727 35.854 138.727 34.7048Z" fill="white"/>
<path d="M150.916 30.9182C150.634 30.8675 150.334 30.8415 150.02 30.8415C149.02 30.8415 148.246 31.2094 147.702 31.9465C147.229 32.5965 146.992 33.4181 146.992 34.41V40.9555H144.15L144.177 32.4093C144.177 30.9715 144.141 29.6624 144.07 28.482H146.546L146.65 30.8688H146.729C147.029 30.0485 147.502 29.3881 148.15 28.8928C148.784 28.4469 149.468 28.2246 150.205 28.2246C150.468 28.2246 150.705 28.2428 150.916 28.2753V30.9182Z" fill="white"/>
<path d="M163.628 34.1279C163.628 34.6245 163.595 35.0431 163.524 35.385H154.996C155.03 36.6174 155.442 37.5599 156.234 38.2099C156.952 38.791 157.882 39.0822 159.023 39.0822C160.286 39.0822 161.438 38.8859 162.474 38.492L162.919 40.416C161.708 40.9308 160.279 41.1869 158.63 41.1869C156.646 41.1869 155.088 40.6175 153.955 39.48C152.824 38.3425 152.258 36.815 152.258 34.8988C152.258 33.0177 152.784 31.4512 153.839 30.2019C154.943 28.8681 156.435 28.2012 158.312 28.2012C160.156 28.2012 161.552 28.8681 162.5 30.2019C163.251 31.2614 163.628 32.5718 163.628 34.1279ZM160.918 33.409C160.936 32.5874 160.751 31.8776 160.366 31.2783C159.874 30.5074 159.118 30.1226 158.1 30.1226C157.171 30.1226 156.415 30.4983 155.838 31.2523C155.364 31.8516 155.083 32.5705 154.996 33.4077H160.918V33.409Z" fill="white"/>
<path d="M66.1536 13.0113C66.1536 14.5414 65.683 15.6932 64.743 16.4667C63.8723 17.1804 62.635 17.5379 61.0323 17.5379C60.2376 17.5379 59.5576 17.5041 58.9883 17.4365V9.07621C59.7309 8.95921 60.5309 8.89941 61.395 8.89941C62.9216 8.89941 64.0723 9.22311 64.8483 9.87051C65.7176 10.6024 66.1536 11.6489 66.1536 13.0113ZM64.6803 13.049C64.6803 12.0571 64.411 11.2966 63.8723 10.7662C63.3336 10.2371 62.547 9.97191 61.511 9.97191C61.071 9.97191 60.6963 10.0005 60.3856 10.0603V16.416C60.5576 16.442 60.8723 16.4537 61.3296 16.4537C62.399 16.4537 63.2243 16.1638 63.8056 15.584C64.387 15.0042 64.6803 14.1592 64.6803 13.049Z" fill="white"/>
<path d="M73.9646 14.3482C73.9646 15.2907 73.6886 16.0629 73.1366 16.6687C72.5579 17.2914 71.7913 17.6021 70.8339 17.6021C69.9113 17.6021 69.1766 17.3044 68.6286 16.7064C68.0819 16.1097 67.8086 15.357 67.8086 14.4496C67.8086 13.5006 68.0899 12.7219 68.6553 12.1174C69.2206 11.5129 69.9806 11.21 70.9379 11.21C71.8606 11.21 72.6019 11.5077 73.1633 12.1044C73.6966 12.6842 73.9646 13.433 73.9646 14.3482ZM72.5153 14.3924C72.5153 13.8269 72.3899 13.342 72.1406 12.9377C71.8473 12.4489 71.4299 12.2045 70.8873 12.2045C70.3259 12.2045 69.8993 12.4489 69.6059 12.9377C69.3553 13.342 69.2313 13.8347 69.2313 14.4171C69.2313 14.9826 69.3566 15.4675 69.6059 15.8718C69.9086 16.3606 70.3299 16.605 70.8739 16.605C71.4073 16.605 71.8259 16.3567 72.1273 15.8588C72.3859 15.4467 72.5153 14.9579 72.5153 14.3924Z" fill="white"/>
<path d="M84.4387 11.334L82.472 17.4622H81.192L80.3774 14.8011C80.1707 14.1368 80.0027 13.4764 79.872 12.8212H79.8467C79.7254 13.4946 79.5574 14.1537 79.3414 14.8011L78.476 17.4622H77.1814L75.332 11.334H76.768L77.4787 14.2473C77.6507 14.9363 77.792 15.5928 77.9054 16.2142H77.9307C78.0347 15.702 78.2067 15.0494 78.4494 14.2603L79.3414 11.3353H80.48L81.3347 14.1979C81.5414 14.896 81.7094 15.5681 81.8387 16.2155H81.8774C81.972 15.585 82.1147 14.9129 82.304 14.1979L83.0667 11.3353H84.4387V11.334Z" fill="white"/>
<path d="M91.6851 17.463H90.2878V13.953C90.2878 12.8714 89.8664 12.3306 89.0211 12.3306C88.6064 12.3306 88.2718 12.4788 88.0118 12.7765C87.7544 13.0742 87.6238 13.4252 87.6238 13.8269V17.4617H86.2264V13.0859C86.2264 12.5477 86.2091 11.964 86.1758 11.3322H87.4038L87.4691 12.2903H87.5078C87.6704 11.9926 87.9131 11.7469 88.2318 11.5506C88.6104 11.3218 89.0344 11.2061 89.4984 11.2061C90.0851 11.2061 90.5731 11.3907 90.9611 11.7612C91.4438 12.2149 91.6851 12.8922 91.6851 13.7918V17.463V17.463Z" fill="white"/>
<path d="M95.5366 17.4626H94.1406V8.52246H95.5366V17.4626Z" fill="white"/>
<path d="M103.765 14.3482C103.765 15.2907 103.489 16.0629 102.937 16.6687C102.359 17.2914 101.591 17.6021 100.635 17.6021C99.7107 17.6021 98.976 17.3044 98.4294 16.7064C97.8827 16.1097 97.6094 15.357 97.6094 14.4496C97.6094 13.5006 97.8907 12.7219 98.456 12.1174C99.0214 11.5129 99.7814 11.21 100.737 11.21C101.661 11.21 102.401 11.5077 102.964 12.1044C103.497 12.6842 103.765 13.433 103.765 14.3482ZM102.315 14.3924C102.315 13.8269 102.189 13.342 101.94 12.9377C101.648 12.4489 101.229 12.2045 100.688 12.2045C100.125 12.2045 99.6987 12.4489 99.4067 12.9377C99.156 13.342 99.032 13.8347 99.032 14.4171C99.032 14.9826 99.1574 15.4675 99.4067 15.8718C99.7094 16.3606 100.131 16.605 100.675 16.605C101.208 16.605 101.625 16.3567 101.927 15.8588C102.187 15.4467 102.315 14.9579 102.315 14.3924Z" fill="white"/>
<path d="M110.527 17.463H109.273L109.169 16.7571H109.13C108.701 17.32 108.089 17.6021 107.294 17.6021C106.701 17.6021 106.221 17.4162 105.859 17.047C105.531 16.7116 105.367 16.2943 105.367 15.799C105.367 15.0502 105.687 14.4795 106.331 14.0843C106.974 13.6891 107.878 13.4954 109.042 13.5045V13.3901C109.042 12.5828 108.607 12.1798 107.737 12.1798C107.117 12.1798 106.57 12.3319 106.098 12.6335L105.814 11.7391C106.398 11.3868 107.119 11.21 107.97 11.21C109.613 11.21 110.437 12.055 110.437 13.745V16.0018C110.437 16.6141 110.467 17.1016 110.527 17.463ZM109.077 15.357V14.4119C107.535 14.3859 106.765 14.798 106.765 15.6469C106.765 15.9667 106.853 16.2059 107.033 16.3658C107.213 16.5257 107.442 16.605 107.715 16.605C108.022 16.605 108.309 16.5101 108.57 16.3216C108.833 16.1318 108.994 15.8913 109.054 15.5962C109.069 15.5299 109.077 15.4493 109.077 15.357Z" fill="white"/>
<path d="M118.469 17.4626H117.229L117.163 16.4785H117.125C116.729 17.2273 116.054 17.6017 115.106 17.6017C114.349 17.6017 113.718 17.3118 113.218 16.732C112.718 16.1522 112.469 15.3995 112.469 14.4752C112.469 13.4833 112.739 12.6799 113.283 12.0663C113.81 11.4943 114.455 11.2083 115.223 11.2083C116.067 11.2083 116.658 11.4852 116.994 12.0403H117.021V8.52246H118.419V15.8116C118.419 16.4083 118.435 16.9582 118.469 17.4626ZM117.021 14.8782V13.8564C117.021 13.6796 117.007 13.5366 116.982 13.4274C116.903 13.0998 116.734 12.8242 116.477 12.6019C116.217 12.3796 115.903 12.2678 115.542 12.2678C115.021 12.2678 114.613 12.4693 114.313 12.8736C114.015 13.2779 113.865 13.794 113.865 14.4245C113.865 15.0303 114.007 15.5217 114.294 15.9C114.597 16.303 115.005 16.5045 115.515 16.5045C115.974 16.5045 116.341 16.3368 116.619 16.0001C116.889 15.6894 117.021 15.315 117.021 14.8782Z" fill="white"/>
<path d="M130.418 14.3482C130.418 15.2907 130.142 16.0629 129.59 16.6687C129.011 17.2914 128.246 17.6021 127.287 17.6021C126.366 17.6021 125.631 17.3044 125.082 16.7064C124.535 16.1097 124.262 15.357 124.262 14.4496C124.262 13.5006 124.543 12.7219 125.108 12.1174C125.674 11.5129 126.434 11.21 127.392 11.21C128.314 11.21 129.056 11.5077 129.616 12.1044C130.15 12.6842 130.418 13.433 130.418 14.3482ZM128.97 14.3924C128.97 13.8269 128.844 13.342 128.595 12.9377C128.3 12.4489 127.884 12.2045 127.34 12.2045C126.78 12.2045 126.354 12.4489 126.059 12.9377C125.808 13.342 125.684 13.8347 125.684 14.4171C125.684 14.9826 125.81 15.4675 126.059 15.8718C126.362 16.3606 126.783 16.605 127.327 16.605C127.86 16.605 128.28 16.3567 128.582 15.8588C128.839 15.4467 128.97 14.9579 128.97 14.3924Z" fill="white"/>
<path d="M137.93 17.463H136.534V13.953C136.534 12.8714 136.113 12.3306 135.266 12.3306C134.851 12.3306 134.517 12.4788 134.258 12.7765C133.999 13.0742 133.87 13.4252 133.87 13.8269V17.4617H132.471V13.0859C132.471 12.5477 132.455 11.964 132.422 11.3322H133.649L133.714 12.2903H133.753C133.917 11.9926 134.159 11.7469 134.477 11.5506C134.857 11.3218 135.279 11.2061 135.745 11.2061C136.33 11.2061 136.818 11.3907 137.206 11.7612C137.69 12.2149 137.93 12.8922 137.93 13.7918V17.463V17.463Z" fill="white"/>
<path d="M147.336 12.3553H145.797V15.3323C145.797 16.0889 146.07 16.4672 146.612 16.4672C146.862 16.4672 147.07 16.4464 147.234 16.4035L147.27 17.437C146.994 17.5384 146.632 17.5891 146.185 17.5891C145.633 17.5891 145.204 17.4253 144.893 17.0977C144.581 16.7701 144.426 16.2189 144.426 15.4454V12.3553H143.508V11.3348H144.426V10.2116L145.796 9.80859V11.3335H147.334V12.3553H147.336Z" fill="white"/>
<path d="M154.732 17.4626H153.333V13.9786C153.333 12.8801 152.912 12.3302 152.068 12.3302C151.42 12.3302 150.977 12.6487 150.735 13.2857C150.693 13.4196 150.669 13.5834 150.669 13.7758V17.4613H149.273V8.52246H150.669V12.2158H150.696C151.136 11.5437 151.767 11.2083 152.584 11.2083C153.163 11.2083 153.641 11.3929 154.021 11.7634C154.495 12.2249 154.732 12.9113 154.732 13.8187V17.4626V17.4626Z" fill="white"/>
<path d="M162.361 14.1089C162.361 14.3533 162.343 14.5587 162.309 14.7264H158.119C158.137 15.3322 158.337 15.7937 158.725 16.1135C159.08 16.3995 159.537 16.5425 160.097 16.5425C160.717 16.5425 161.283 16.4463 161.792 16.2526L162.011 17.199C161.415 17.4512 160.713 17.5773 159.901 17.5773C158.928 17.5773 158.161 17.2978 157.607 16.7388C157.049 16.1798 156.773 15.4297 156.773 14.4885C156.773 13.5642 157.031 12.7946 157.549 12.181C158.091 11.5258 158.823 11.1982 159.747 11.1982C160.651 11.1982 161.337 11.5258 161.801 12.181C162.176 12.701 162.361 13.3445 162.361 14.1089ZM161.028 13.7566C161.039 13.3523 160.947 13.0039 160.757 12.7101C160.515 12.3318 160.145 12.142 159.645 12.142C159.189 12.142 158.817 12.3266 158.533 12.6971C158.301 12.9922 158.164 13.3445 158.119 13.7566H161.028Z" fill="white"/>
</svg>
