<svg width="44" height="44" viewBox="0 0 44 44" fill="none" xmlns="http://www.w3.org/2000/svg">
<g id="Group 427322600">
<path id="Vector" d="M22.5987 32.2416L22.4325 32.0446C21.627 32.8047 21.0517 33.2533 20.5249 33.6596L22.5987 32.2416ZM22.5987 32.2416C21.7392 33.1052 21.0229 33.8005 20.3746 34.3007C19.8744 34.6864 19.3904 34.9757 18.8845 35.1422V34.8721C19.4763 34.578 19.9116 34.1928 20.2314 33.9097C20.3426 33.8113 20.4398 33.7253 20.5248 33.6597L22.5987 32.2416ZM16.8845 35.0699V35.1422C16.3787 34.9757 15.8949 34.6864 15.3949 34.3008C14.7298 33.7877 13.9931 33.0693 13.1037 32.1744L13.1039 32.1742C14.1018 33.1024 15.0997 33.92 15.6284 34.3278M16.8845 35.0699L15.6282 34.3276C15.6283 34.3277 15.6283 34.3277 15.6284 34.3278M16.8845 35.0699C16.7813 35.0395 16.6793 35.0021 16.5774 34.9563C16.2475 34.8082 15.9584 34.5839 15.7056 34.3875C15.6794 34.3673 15.6537 34.3473 15.6284 34.3278M16.8845 35.0699L15.6284 34.3278M11.7377 21.5299C10.9516 22.3327 10.3143 23.0111 9.84819 23.6286L11.7377 21.5299ZM11.7377 21.5299L11.7433 21.5369C10.9311 22.3755 10.2675 23.1023 9.81413 23.674C9.82538 23.6589 9.83671 23.6438 9.84813 23.6287L11.7377 21.5299ZM31.8865 13.2597C32.0508 13.4167 32.2085 13.5655 32.3602 13.7086C32.4641 13.8066 32.5652 13.902 32.6637 13.9956C33.1012 14.4112 33.516 14.8172 33.8251 15.2267C33.9224 15.3557 34.0287 15.4807 34.1468 15.6165C34.1654 15.6379 34.1847 15.66 34.2046 15.6827C34.3025 15.7948 34.4134 15.9217 34.5114 16.0442C34.608 16.1647 34.7351 16.3302 34.8444 16.5343L34.9286 16.5506C34.7571 16.1216 34.502 15.7054 34.1803 15.279L31.8865 13.2597ZM31.8865 13.2597L32.1502 13.0371M31.8865 13.2597L32.1502 13.0371M32.1502 13.0371C33.0011 13.9028 33.6866 14.625 34.1802 15.2789L32.1502 13.0371ZM22.9036 28.7229L15.1804 20.915L15.5044 20.591L23.2637 28.3503L22.9036 28.7229ZM9.91741 28.5591C10.2917 29.0666 10.8097 29.7693 11.4949 30.5429C10.8195 29.8472 10.2652 29.2458 9.84813 28.6931C9.41873 28.1242 9.10807 27.5733 8.95623 26.9857L9.06013 26.9679C9.16397 27.3675 9.34667 27.7973 9.66587 28.2202C9.74116 28.32 9.82489 28.4336 9.91741 28.5591ZM26.2715 28.5297L26.0682 28.3263L30.6913 23.5425L30.9071 23.8432L26.2715 28.5297ZM32.3326 22.3993L32.1018 22.0778C33.0002 21.1094 33.6012 20.3129 34.0257 19.7503L34.0448 19.7249C34.0449 19.7248 34.0449 19.7248 34.045 19.7247C34.096 19.6572 34.1515 19.5876 34.2094 19.5149C34.4174 19.254 34.6567 18.9539 34.8312 18.5689L35.077 18.6166C34.927 19.2114 34.6143 19.7681 34.1802 20.3435C33.7223 20.95 33.0994 21.6152 32.3326 22.3993ZM20.0481 13.1259L20.0926 13.1744L16.5698 16.6971L15.5044 17.7626L15.483 17.7412L20.0481 13.1259ZM21.4973 11.7471L21.4569 11.7031C21.9452 11.2128 22.3871 10.7774 22.7967 10.4017C22.624 10.57 22.4488 10.7495 22.27 10.9356C22.1298 11.0815 21.9864 11.2326 21.8368 11.3902C21.7273 11.5055 21.6146 11.6243 21.4973 11.7471ZM25.1766 8.86697C24.9932 8.90781 24.8209 8.96191 24.6558 9.03043C24.8273 8.94613 25 8.8755 25.1753 8.81964L25.1766 8.86697ZM27.1797 8.95115L27.1767 8.84085C27.6706 9.00897 28.1444 9.29403 28.6335 9.67137C29.2517 10.1482 29.9317 10.8026 30.7389 11.6112L30.4693 11.8387C30.3208 11.6836 30.1797 11.535 30.0437 11.3917C29.8936 11.2336 29.7496 11.082 29.6089 10.9355C29.1865 10.4959 28.7841 10.0931 28.3877 9.78739C28.284 9.70744 28.1973 9.63629 28.1055 9.56101C28.0707 9.53246 28.0351 9.50331 27.9977 9.47286C27.8724 9.37108 27.722 9.25181 27.5538 9.14605C27.4337 9.07053 27.3099 9.00523 27.1797 8.95115Z" stroke="white" stroke-width="2"/>
<path id="Vector_2" d="M1 22C1 10.402 10.402 1 22 1C33.5979 1 43 10.402 43 22C43 33.5979 33.5979 43 22 43C10.402 43 1 33.5979 1 22Z" stroke="white" stroke-width="1.5"/>
</g>
</svg>
