<svg width="43" height="46" viewBox="0 0 43 46" fill="currentColor" xmlns="http://www.w3.org/2000/svg">
<path id="Vector" d="M30.7175 8.15112V5.87957H31.2541C36.0614 5.87957 39.0874 8.78413 39.0874 12.8804C39.0874 15.3568 38.2076 16.2877 38.1646 16.9767C38.1216 17.4794 38.3578 17.7959 38.8299 18.0007C39.4952 18.2799 40.2891 18.0193 40.6539 17.4794C41.3194 16.4926 41.7699 14.8541 41.7699 12.8618C41.7699 7.40634 37.5851 3.73831 31.2755 3.73831H30.7175V1.29916C30.7175 0.0330816 29.3655 -0.357914 28.1851 0.349664L22.3476 3.77552C21.5964 4.22241 21.575 5.22788 22.3476 5.67477L28.1851 9.0821C29.344 9.771 30.7175 9.38 30.7175 8.15112ZM16.3814 31.7232H28.85V39.7666C28.85 40.679 28.8698 41.619 29.9 41.619C30.9515 41.619 31.6833 41.312 31.6833 39.7666V31.7232H40.8258C41.813 31.7232 42.5 31.5232 42.5 30.6667C42.5 29.8289 41.813 29.5714 40.8258 29.5714H31.6833V18.8199C31.6833 15.785 30.2453 14.5375 26.7471 14.5375H14.15V6.60566C14.15 5.69337 13.7856 4.92857 12.7555 4.92857C11.7253 4.92857 11.4452 5.69337 11.4452 6.60566V14.5375H2.19549C1.18673 14.5375 0.5 15.0961 0.5 15.9526C0.5 16.7905 1.18673 17.3491 2.19549 17.3491H11.4452V27.4407C11.4452 30.4756 12.8832 31.7232 16.3814 31.7232ZM16.775 29.5714C15.2727 29.5714 14.15 28.6843 14.15 27.381V17.3491H26.2106C27.7129 17.3491 29.0499 17.5166 29.0499 18.8199V29.5714H16.775ZM12.4326 37.8489V40.3625H11.8745C7.08868 40.3625 4.04117 37.4579 4.04117 33.3617C4.04117 30.8853 4.92108 29.9543 4.9854 29.284C5.00685 28.7627 4.79233 28.4461 4.29867 28.2414C3.63338 27.9621 2.86078 28.2227 2.47443 28.7627C1.83058 29.7495 1.35847 31.388 1.35847 33.3803C1.35847 38.8357 5.54339 42.5037 11.853 42.5037H12.4326V44.7008C12.4326 45.9669 13.7631 46.3579 14.965 45.6503L20.781 42.2244C21.5536 41.7775 21.5536 40.7721 20.781 40.3252L14.965 36.9179C13.7846 36.229 12.4326 36.62 12.4326 37.8489Z" fill="currentColor"/>
</svg>
