<svg width="42" height="42" viewBox="0 0 42 42" fill="none" xmlns="http://www.w3.org/2000/svg">
<g id="Group 427322598">
<path id="Vector" d="M26.0116 17.4075L26.1185 17.3473L26.0116 17.4075ZM26.0116 17.4075L25.8268 17.0963L25.8753 17.0557L26.0116 17.4075ZM15.6129 38.8367C15.6141 38.8594 15.6153 38.882 15.6165 38.9046C15.635 39.2372 15.6609 39.5699 15.6941 39.9023L15.6129 38.8367ZM15.6129 38.8367L15.6941 38.8448L15.6129 38.8367ZM26.2116 17.4515C26.1825 17.4187 26.1532 17.3859 26.1237 17.3533L26.2116 17.4515ZM25.8302 16.9997L25.791 17.0361L25.8221 16.9896C25.8248 16.993 25.8275 16.9963 25.8302 16.9997Z" fill="#FFFDFD" stroke="white" stroke-width="33.3333"/>
<circle id="Ellipse 683" cx="21" cy="21" r="20.25" stroke="white" stroke-width="1.5"/>
</g>
</svg>
