<svg width="24" height="23" viewBox="0 0 24 23" fill="none" xmlns="http://www.w3.org/2000/svg">
<g id="Property 1=Default">
<path id="Vector" d="M9 14.8333V13.2626C9 11.2469 10.2811 10.4223 11.8444 11.4302L13.0667 12.2155L14.2891 13.0009C15.8523 14.0087 15.8523 15.658 14.2891 16.6658L13.0667 17.4512L11.8444 18.2365C10.2811 19.2444 9 18.4198 9 16.404V14.8333Z" stroke="white" stroke-width="1.2" stroke-miterlimit="10" strokeLinecap="round" stroke-linejoin="round"/>
<path id="Vector_2" d="M23.1445 4.78223H23.3953V20.9111C23.3953 21.7068 22.7124 22.4 21.8156 22.4H2.17969C1.28674 22.4 0.6 21.706 0.6 20.9111V7.91777H1.09219H5.45156H5.69265L5.86671 7.75097L8.96452 4.78223H9.95831L7.76454 6.88458L6.68643 7.91777H8.17969H12.5437H12.7848L12.9589 7.75097L16.0567 4.78223H17.0505L14.8567 6.88458L13.7786 7.91777H15.2719H19.6359H19.8773L20.0514 7.75067L23.1445 4.78223ZM0.677044 6.88458L0.6 6.95841V4.78223H2.87081L0.677044 6.88458ZM6.94482 0.6H7.93885L9.96145 2.53555H8.96452L6.94482 0.6ZM14.037 0.6H15.0308L17.0505 2.53555H16.0567L14.037 0.6ZM23.4 2.53555H23.1489L21.1292 0.6H23.4V2.53555ZM0.6 2.53555V0.6H0.851104L2.8708 2.53555H0.6Z" stroke="white" stroke-width="1.2"/>
</g>
</svg>
