<svg width="32" height="33" viewBox="0 0 32 33" fill="none" xmlns="http://www.w3.org/2000/svg">
<path id="Vector" fill-rule="evenodd" clipRule="evenodd" d="M14.0454 0.5C13.317 0.5 12.6854 0.958269 12.524 1.60403L10.6182 9.22727H4.8C3.91635 9.22727 3.2 9.8785 3.2 10.6818C3.2 11.4851 3.91635 12.1364 4.8 12.1364H9.89088L7.70907 20.8636H1.6C0.716352 20.8636 0 21.5148 0 22.3182C0 23.1215 0.716352 23.7727 1.6 23.7727H6.98179L5.23315 30.7673C5.01126 31.6549 5.75334 32.5 6.75458 32.5C7.48304 32.5 8.11454 32.0417 8.27598 31.396L10.1818 23.7727H18.1818L16.4331 30.7673C16.2112 31.6549 16.9533 32.5 17.9546 32.5C18.683 32.5 19.3146 32.0417 19.476 31.396L21.3818 23.7727H27.2C28.0837 23.7727 28.8 23.1215 28.8 22.3182C28.8 21.5148 28.0837 20.8636 27.2 20.8636H22.1091L24.2909 12.1364H30.4C31.2837 12.1364 32 11.4851 32 10.6818C32 9.8785 31.2837 9.22727 30.4 9.22727H25.0182L26.7667 2.23271C26.9886 1.34515 26.2466 0.5 25.2454 0.5C24.517 0.5 23.8854 0.958269 23.724 1.60403L21.8182 9.22727H13.8181L15.5667 2.23271C15.7886 1.34515 15.0466 0.5 14.0454 0.5ZM18.9091 20.8636L21.0909 12.1364H13.0909L10.9091 20.8636H18.9091Z" fill="#007AFF"/>
</svg>
